<svg width="24" height="24" viewBox="0 0 24 24" fill="none" xmlns="http://www.w3.org/2000/svg">
<rect x="0.5" y="0.5" width="23" height="23" rx="11.5" fill="white"/>
<rect x="0.5" y="0.5" width="23" height="23" rx="11.5" stroke="#212426"/>
<path d="M12.7692 7.76923C12.7692 7.34375 12.4255 7 12 7C11.5745 7 11.2308 7.34375 11.2308 7.76923V11.2308H7.76923C7.34375 11.2308 7 11.5745 7 12C7 12.4255 7.34375 12.7692 7.76923 12.7692H11.2308V16.2308C11.2308 16.6562 11.5745 17 12 17C12.4255 17 12.7692 16.6562 12.7692 16.2308V12.7692H16.2308C16.6562 12.7692 17 12.4255 17 12C17 11.5745 16.6562 11.2308 16.2308 11.2308H12.7692V7.76923Z" fill="#212426"/>
</svg>
